<?xml version="1.0" encoding="UTF-8" standalone="no"?>
<!-- Created with Inkscape (http://www.inkscape.org/) -->
<svg
   xmlns:svg="http://www.w3.org/2000/svg"
   xmlns="http://www.w3.org/2000/svg"
   version="1.0"
   width="620"
   height="540"
   id="svg2">
  <defs
     id="defs4" />
  <g
     id="layer1">
    <rect
       width="649.8089"
       height="571.92487"
       x="-11.624489"
       y="-15.650564"
       style="fill:#9ec7f3;fill-opacity:1;stroke:none;stroke-width:2.5;stroke-linecap:round;stroke-miterlimit:4;stroke-dasharray:5, 5;stroke-dashoffset:0;stroke-opacity:0.94117647"
       id="rect6608" />
    <path
       d="M 81.698758,36.914704 L 64.337772,37.255116 C 58.305891,40.288912 51.770369,42.483305 48.338432,49.850341 C 44.506279,50.176377 41.868547,51.935718 42.551436,57.679805 C 33.501906,60.567206 38.760664,64.476627 41.870613,68.232562 C 42.037747,71.645689 40.295427,76.252224 47.317197,75.381203 C 49.473137,78.333759 51.629076,78.411825 53.785016,77.764083 C 55.069319,81.102431 57.588311,84.132107 55.487073,88.31684 C 58.158251,90.938853 63.015864,85.908347 67.401475,82.529844 C 65.63119,78.16798 69.307807,75.984877 71.826825,73.338734 C 74.976699,75.526246 76.956704,74.204148 78.294643,70.955854 C 77.630624,67.418935 79.527749,64.394245 83.400815,61.764743 C 86.493825,60.942395 91.249737,60.674347 91.911103,59.041451 L 92.932337,51.211987 C 97.968774,48.367132 96.922565,44.091044 88.847399,44.403757 L 81.698758,36.914704 z "
       style="fill:#ffffd0;fill-opacity:1;fill-rule:evenodd;stroke:#000000;stroke-width:1px;stroke-linecap:butt;stroke-linejoin:miter;stroke-opacity:1"
       id="path3111" />
    <path
       d="M 425.01444,209.35834 L 411.96795,200.32615 C 408.69376,193.50686 398.02297,189.64622 389.88928,184.77073 L 380.85709,179.75285 L 366.30524,178.74927 C 365.55574,174.82786 365.74657,170.55383 356.77127,169.71709 C 351.09414,169.50082 346.93073,161.71596 342.21942,156.6706 C 336.62998,155.97382 330.71046,155.93722 327.16578,151.15093 L 313.6175,150.14735 C 308.422,148.86102 302.77827,149.81587 298.56386,143.62411 L 290.53525,144.1259 L 284.5138,144.1259 L 276.98698,141.61696 C 275.09741,144.32256 273.72096,147.15643 274.97983,150.64914 C 273.83904,157.91624 272.65732,154.829 271.46731,149.64557 L 263.94049,145.63126 L 267.95479,133.58835 C 266.71655,125.54084 261.09791,119.37065 252.39937,114.52041 C 251.95962,111.84421 250.55205,109.168 245.87612,106.4918 L 231.32427,102.47749 L 222.79387,109.00074 L 215.26705,105.99001 L 205.73308,98.964977 L 192.18481,100.47034 C 189.48819,101.34748 185.6776,104.45257 185.15977,100.97213 C 185.11117,98.400577 185.89924,96.331024 193.69017,98.463189 C 196.6176,96.255455 198.7235,93.719108 197.70447,89.932793 C 201.21485,88.134185 196.00005,84.154281 193.69017,80.900609 L 186.66514,79.395245 L 181.64726,83.911337 L 174.62223,78.391669 L 167.59719,78.391669 C 165.02863,76.909524 162.41608,75.69127 159.0668,78.893457 L 152.04176,79.395245 L 148.02746,81.904185 L 139.49706,90.936369 C 143.26946,91.444603 146.91958,92.054745 146.02031,96.456037 C 142.84232,100.40992 139.66433,99.092587 136.48634,98.463189 L 127.45415,103.98286 L 126.45058,108.49895 L 120.42912,110.00431 L 115.91303,106.99359 C 113.48427,102.19557 111.5252,101.62472 109.89157,103.98286 C 107.09962,105.46211 103.92967,109.58742 101.86296,105.99001 C 99.521284,103.03278 97.179609,107.99789 94.837933,111.00789 C 98.121853,120.33048 98.030408,122.50945 103.87012,115.52398 L 112.9023,119.53829 C 112.65387,124.7388 113.48785,127.50388 116.41482,125.55974 L 119.92733,130.57762 L 110.89515,135.09371 C 109.40434,144.74153 116.22451,141.56879 119.92733,140.11159 L 142.006,125.05795 L 160.07037,125.05795 C 164.09675,125.24628 164.31811,126.54697 163.58289,128.57047 C 163.58277,131.74834 162.3116,133.65516 157.56143,132.08299 C 153.55752,130.76567 150.96627,132.27368 148.52925,134.09014 L 131.46846,143.62411 L 124.94521,146.63484 L 120.93091,149.14378 L 115.41124,157.67417 L 105.87727,160.6849 L 95.841509,155.16523 L 95.339721,150.14735 L 95.339721,141.11517 C 99.368291,141.85186 100.08249,139.82658 99.354025,136.59908 C 99.540281,131.99558 96.306287,133.09249 94.336145,132.08299 L 89.318265,115.02219 C 91.40713,112.13723 91.499091,109.58508 88.816477,107.49537 C 86.307537,108.87581 83.798596,107.2221 81.289656,105.48822 L 80.787868,98.964977 C 83.193553,94.073181 82.978965,92.555436 77.77714,97.459613 C 77.152109,94.334438 78.74673,88.249726 73.762836,90.936369 L 53.189528,102.47749 C 54.770779,111.00789 45.995133,120.08701 40.550941,128.61741 C 40.296184,132.79207 40.659565,136.22496 45.662708,134.09014 C 47.029065,136.43182 49.788122,138.77349 47.168072,141.11517 L 46.164496,149.14378 C 45.280025,155.96038 47.84127,156.74697 51.182376,156.16881 C 54.831676,159.14658 56.422181,161.78122 53.691316,163.69563 L 57.203832,170.72066 C 57.221892,177.66586 59.519965,181.57104 62.7235,184.26894 L 60.21456,186.27609 L 70.752108,198.82079 L 69.246744,202.33331 C 68.142165,207.38455 63.103206,211.87373 68.744956,217.88873 L 69.246744,229.42986 C 66.077006,236.36438 67.033783,239.86014 70.25032,241.47277 L 84.802172,241.97456 C 93.848669,238.18968 97.643993,242.28156 100.3576,247.99601 C 100.25171,253.28705 104.9059,253.818 108.888,255.02105 C 112.1083,261.35784 114.32379,264.17782 115.41124,263.04965 L 122.93806,257.0282 C 125.61235,258.61635 132.08764,253.32524 133.9774,247.99601 L 140.50064,247.99601 C 142.9569,249.39865 143.89999,251.05348 139.99885,253.51568 C 143.28266,256.83977 146.44729,260.1877 144.51494,264.55502 C 146.80235,269.51863 146.48873,271.88122 144.51494,272.58363 C 136.82539,279.10801 135.31548,287.17729 131.46846,294.6623 L 134.47918,303.19269 C 136.19192,301.0917 138.73307,303.96111 141.50422,308.21057 L 145.51852,314.73382 L 156.55786,310.21773 C 157.45728,313.60505 161.04356,318.78362 156.05607,318.24633 C 149.975,318.14035 149.61453,320.17958 152.04176,323.26421 L 160.57216,329.78746 C 165.75136,335.64165 168.69091,341.49585 169.60434,347.35004 L 176.62938,344.8411 L 190.67944,343.83752 L 196.19911,356.38222 C 201.88002,356.05071 201.3518,358.82375 200.21341,361.90189 C 203.43602,368.78203 205.0713,362.96361 207.23845,361.4001 C 213.97172,354.3984 212.30884,346.4638 208.74381,338.31785 C 211.1388,335.65698 212.17733,331.18749 217.77599,332.79819 C 216.27796,328.78388 220.44782,324.76958 223.29566,320.75527 C 225.76423,318.76398 228.78648,316.8419 222.29209,313.73024 C 225.01718,311.4426 225.69181,308.64235 223.79745,305.19985 C 226.02561,295.66588 221.54425,286.1319 218.27778,276.59793 L 209.74739,270.07469 L 217.27421,258.03177 C 213.79858,254.98021 213.97996,251.19726 216.27063,246.99244 L 217.77599,240.46919 L 221.7903,233.94595 C 220.0976,238.86515 218.92782,244.17653 221.7903,252.51211 C 223.26573,264.59778 224.0379,277.6881 233.33142,278.60508 L 238.3493,284.62654 L 244.37076,288.64084 L 238.85109,298.17481 C 237.63768,305.61952 241.0918,303.72917 244.37076,302.18912 C 246.26497,298.45073 247.79005,293.97405 251.89758,294.6623 L 256.91546,291.65157 L 265.94764,297.67303 C 268.6449,306.30629 272.13479,306.22066 275.9834,302.18912 L 282.00486,290.14621 L 286.52095,286.1319 C 296.15012,291.94319 297.21461,288.23818 296.55671,282.61939 C 301.74175,281.89473 306.80832,281.32801 308.59962,285.12833 C 309.22017,289.35715 305.47962,290.31514 301.57459,291.14978 C 300.22949,296.50219 300.32139,301.85459 303.58174,307.207 L 307.59605,301.18554 C 309.80063,313.48421 303.63479,326.54382 317.13002,337.81607 C 319.42171,341.76052 317.66078,349.08216 326.1622,347.85183 L 334.6926,352.86971 L 340.21227,356.38222 L 344.22657,359.39295 L 348.74266,360.89831 C 349.74611,363.57476 353.23366,361.28301 355.76769,360.89831 C 358.93257,354.32701 364.71487,357.35287 371.32312,363.40725 C 372.20834,359.22055 378.02094,358.72939 383.36603,357.88759 L 392.39822,366.41798 L 395.91073,376.95553 L 400.42683,386.99129 C 404.67439,384.23408 407.44279,380.29353 405.94649,372.94123 L 413.9751,366.91977 C 420.59946,368.01477 423.46726,371.92719 425.51623,376.45374 L 432.54126,387.99487 C 434.21389,396.86593 435.88651,398.25968 437.55914,393.51453 L 445.58775,373.9448 L 450.60563,371.93765 L 457.12887,373.9448 C 459.89452,375.63397 463.75917,376.4989 462.14675,381.47162 C 467.09187,384.76585 469.45005,380.29928 472.18251,376.95553 C 471.00371,366.06753 475.54836,366.62644 478.70575,364.41083 L 484.22542,377.95911 C 494.26711,382.48311 495.74549,375.58935 499.27906,371.43586 L 504.79873,375.95195 L 508.81303,380.96983 C 513.43984,377.85076 517.87402,375.50224 521.35774,376.95553 C 525.20679,375.91165 531.27913,376.53523 526.37562,368.92692 C 519.24165,366.31684 523.11859,364.70776 524.87025,362.90547 L 532.89886,362.40368 L 538.92032,359.89474 L 542.93462,366.41798 C 547.43487,361.2927 556.62798,363.20673 554.97753,348.8554 L 558.49005,332.79819 C 560.33359,326.91749 558.20957,323.87076 551.9668,323.766 L 544.94177,317.74455 L 542.43283,313.73024 L 544.94177,301.18554 C 549.42313,297.17124 552.01567,293.15693 543.9382,289.14263 L 527.88098,286.1319 C 520.68448,286.09509 520.02174,291.28527 518.34701,295.66587 C 524.02618,301.52934 519.66732,306.78303 514.83449,304.19627 C 511.85696,305.29986 509.37064,307.05841 509.81661,312.72667 C 509.76752,316.4319 511.0801,322.08237 503.29337,314.73382 L 494.76297,312.22488 L 491.75224,304.19627 C 498.93058,301.70436 492.7362,297.7266 490.24688,294.16051 C 484.84414,294.11829 479.81586,295.01226 476.6986,300.68375 C 474.48422,301.09821 472.49885,301.05465 473.68787,294.6623 L 484.22542,281.11402 C 486.99272,279.17146 487.58392,276.68487 485.73079,273.5872 C 496.79293,272.35445 496.2883,266.16451 491.25045,258.03177 C 504.08467,252.15948 493.08284,247.77695 488.74151,242.97813 L 478.20397,236.95668 L 467.66642,228.92807 L 463.15033,229.93165 L 456.12529,224.91377 L 446.08953,218.89231 C 444.14573,213.24272 428.70895,199.21426 425.01444,209.35834 z "
       style="fill:#ffffd0;fill-opacity:1;fill-rule:evenodd;stroke:#000000;stroke-width:1px;stroke-linecap:butt;stroke-linejoin:miter;stroke-opacity:1"
       id="path3986" />
    <path
       d="M 415.59931,387.78633 L 421.66412,383.63672 C 427.24403,384.03877 429.46298,386.1213 424.85613,391.61673 C 426.74716,395.55354 429.5633,399.49035 427.40974,403.42716 C 425.93355,407.92377 423.99133,407.76 421.66412,403.74636 C 421.49908,399.27018 419.69597,395.77683 415.28011,393.85114 L 415.59931,387.78633 z "
       style="fill:#ffffd0;fill-opacity:1;fill-rule:evenodd;stroke:#000000;stroke-width:1px;stroke-linecap:butt;stroke-linejoin:miter;stroke-opacity:1"
       id="path1315" />
    <path
       d="M 565.62364,386.50952 L 565.94284,379.48711 C 564.24044,377.49584 562.53803,377.61627 560.83563,379.16791 C 559.23931,380.54672 557.52148,380.22431 555.72842,378.84871 C 552.66307,377.51278 551.80601,381.32951 551.25961,385.87112 C 551.37693,388.62359 549.66997,389.75448 548.0676,390.97833 C 544.77818,394.3207 549.10528,394.84213 550.62121,396.40474 C 553.10903,398.38137 553.39759,400.63291 554.45162,402.78876 L 563.70844,407.57677 C 565.36475,405.56938 566.80455,403.12897 568.81565,401.83116 C 572.99234,400.26514 569.64565,397.7587 567.85804,395.44714 C 572.53644,392.31729 567.4147,389.45966 565.62364,386.50952 z "
       style="fill:#ffffd0;fill-opacity:1;fill-rule:evenodd;stroke:#000000;stroke-width:1px;stroke-linecap:butt;stroke-linejoin:miter;stroke-opacity:1"
       id="path1323" />
    <path
       d="M 219.86207,343.34019 C 222.90008,343.18022 226.42214,346.16659 228.93083,342.56603 C 231.83933,339.7643 234.66305,336.96257 231.80629,334.16084 C 232.94547,332.85892 228.40376,328.42847 227.60369,329.29467 C 227.40454,329.51028 219.86854,338.3893 220.08326,339.24819 L 219.86207,343.34019 z "
       style="fill:#ffffd0;fill-opacity:1;fill-rule:evenodd;stroke:#000000;stroke-width:1px;stroke-linecap:butt;stroke-linejoin:miter;stroke-opacity:1"
       id="path1326" />
    <path
       d="M 228.04607,328.63111 C 228.79855,327.41963 230.15903,326.41081 229.26261,324.6497 C 229.60846,323.58713 229.73432,322.58742 228.04607,322.10602 C 226.15102,324.42142 222.39232,326.87488 228.04607,328.63111 z "
       style="fill:#ffffd0;fill-opacity:1;fill-rule:evenodd;stroke:#000000;stroke-width:1px;stroke-linecap:butt;stroke-linejoin:miter;stroke-opacity:1"
       id="path1328" />
    <path
       d="M 179.47824,176.72592 L 218.84432,152.38111 L 241.89419,183.71858 L 238.52736,186.82643 L 217.54938,157.04288 L 181.80913,179.83377 L 179.47824,176.72592 z "
       style="fill:#ffd0d0;fill-opacity:1;fill-rule:evenodd;stroke:#000000;stroke-width:1px;stroke-linecap:butt;stroke-linejoin:miter;stroke-opacity:1"
       id="path1330" />
    <path
       d="M 192.42761,242.24972 L 207.44887,245.35757 L 204.34103,262.45074 L 189.83773,259.34289 L 192.42761,242.24972 z "
       style="fill:#ffd0d0;fill-opacity:1;fill-rule:evenodd;stroke:#000000;stroke-width:1px;stroke-linecap:butt;stroke-linejoin:miter;stroke-opacity:1"
       id="path1332" />
    <path
       d="M 197.08938,200.81174 L 209.52077,192.26516 L 217.29039,203.14263 L 205.63596,211.68921 L 197.08938,200.81174 z "
       style="fill:#ffd0d0;fill-opacity:1;fill-rule:evenodd;stroke:#000000;stroke-width:1px;stroke-linecap:butt;stroke-linejoin:miter;stroke-opacity:1"
       id="path1334" />
    <path
       d="M 195.01748,217.12795 L 192.6866,233.44415 L 200.97419,236.03403 L 206.15394,218.1639 L 195.01748,217.12795 z "
       style="fill:#ffd0d0;fill-opacity:1;fill-rule:evenodd;stroke:#000000;stroke-width:1px;stroke-linecap:butt;stroke-linejoin:miter;stroke-opacity:1"
       id="path1340" />
    <path
       d="M 198.12533,203.40162 L 195.01748,217.64592 L 204.08204,219.97681 L 198.38432,243.28567 L 201.49217,244.06263 L 210.55672,207.8044 L 198.12533,203.40162 z "
       style="fill:#ffd0d0;fill-opacity:1;fill-rule:evenodd;stroke:#000000;stroke-width:1px;stroke-linecap:butt;stroke-linejoin:miter;stroke-opacity:1"
       id="path1338" />
    <path
       d="M 227.90888,218.42289 L 229.72179,217.12795 L 209.52077,188.63934 L 195.79444,198.48086 L 197.08938,201.07073 L 209.26179,192.78314 L 227.90888,218.42289 z "
       style="fill:#ffd0d0;fill-opacity:1;fill-rule:evenodd;stroke:#000000;stroke-width:1px;stroke-linecap:butt;stroke-linejoin:miter;stroke-opacity:1"
       id="path1336" />
    <path
       d="M 197.60736,243.28567 L 197.86634,250.27833 L 206.15394,251.31428"
       style="fill:none;fill-opacity:0.75;fill-rule:evenodd;stroke:#000000;stroke-width:1px;stroke-linecap:butt;stroke-linejoin:miter;stroke-opacity:1"
       id="path1342" />
    <path
       d="M 304.48683,32.558528 L 285.3996,162.5335 L 399.01409,199.79906 L 371.74661,297.05306 L 333.57214,287.05498 L 222.6844,142.53735 L 170.87619,174.34941 L 186.32776,287.05498 L 267.22128,256.15184 L 203.59716,498.83239"
       style="fill:none;fill-opacity:0.75;fill-rule:evenodd;stroke:#a08070;stroke-width:2.5;stroke-linecap:butt;stroke-linejoin:miter;stroke-miterlimit:4;stroke-dasharray:5, 5;stroke-dashoffset:0;stroke-opacity:0.94117647"
       id="path1344" />
    <path
       d="M 369.60798,492.22973 L 369.60798,498.22645 L 446.67871,498.22645 L 523.74943,498.22645 L 523.74943,492.22973"
       style="fill:none;fill-opacity:0.75;fill-rule:evenodd;stroke:#000000;stroke-width:1px;stroke-linecap:butt;stroke-linejoin:miter;stroke-opacity:1"
       id="path1348" />
    <text
       x="20.919724"
       y="325.1926"
       style="font-size:25px;font-style:normal;font-variant:normal;font-weight:normal;font-stretch:normal;text-align:start;line-height:125%;writing-mode:lr-tb;text-anchor:start;fill:#000000;fill-opacity:1;stroke:none;stroke-width:1px;stroke-linecap:butt;stroke-linejoin:miter;stroke-opacity:1;font-family:Sans"
       id="text6588"
       xml:space="preserve"><tspan
         x="20.919724"
         y="325.1926"
         id="tspan6590">Sweden</tspan></text>
    <text
       x="364.20993"
       y="127.82581"
       style="font-size:25px;font-style:normal;font-variant:normal;font-weight:normal;font-stretch:normal;text-align:start;line-height:125%;writing-mode:lr-tb;text-anchor:start;fill:#000000;fill-opacity:1;stroke:none;stroke-width:1px;stroke-linecap:butt;stroke-linejoin:miter;stroke-opacity:1;font-family:Sans"
       id="text6592"
       xml:space="preserve"><tspan
         x="364.20993"
         y="127.82581"
         id="tspan6594">Finland</tspan></text>
    <text
       x="422.5784"
       y="490.87683"
       style="font-size:14px;font-style:normal;font-variant:normal;font-weight:normal;font-stretch:normal;text-align:start;line-height:125%;writing-mode:lr-tb;text-anchor:start;fill:#000000;fill-opacity:1;stroke:none;stroke-width:1px;stroke-linecap:butt;stroke-linejoin:miter;stroke-opacity:1;font-family:Sans"
       id="text6596"
       xml:space="preserve"><tspan
         x="422.5784"
         y="490.87683"
         id="tspan6598">100 m</tspan></text>
    <path
       d="M 382.83185,498.05605 L 382.83185,503.46148"
       style="fill:none;fill-opacity:0.75;fill-rule:evenodd;stroke:#000000;stroke-width:1px;stroke-linecap:butt;stroke-linejoin:miter;stroke-opacity:1"
       id="path6600" />
    <path
       d="M 523.72181,498.20539 L 523.72181,502.95345"
       style="fill:none;fill-opacity:0.75;fill-rule:evenodd;stroke:#000000;stroke-width:1px;stroke-linecap:butt;stroke-linejoin:miter;stroke-opacity:1"
       id="path6602" />
    <text
       x="434.04498"
       y="514.25177"
       style="font-size:14px;font-style:normal;font-variant:normal;font-weight:normal;font-stretch:normal;text-align:start;line-height:125%;writing-mode:lr-tb;text-anchor:start;fill:#000000;fill-opacity:1;stroke:none;stroke-width:1px;stroke-linecap:butt;stroke-linejoin:miter;stroke-opacity:1;font-family:Sans"
       id="text6604"
       xml:space="preserve"><tspan
         x="434.04498"
         y="514.25177"
         id="tspan6606">300 ft</tspan></text>
  </g>
</svg>
